<svg width="752" height="591" viewBox="0 0 752 591" fill="none" xmlns="http://www.w3.org/2000/svg">
<g clip-path="url(#clip0_3_2)">
<path d="M749.941 590.205L1.19068 590.512C0.87549 590.511 0.573527 590.385 0.350975 590.162C0.128423 589.939 0.00344086 589.637 0.00344086 589.322C0.00344086 589.006 0.128423 588.704 0.350975 588.481C0.573527 588.258 0.87549 588.132 1.19068 588.131L749.941 587.823C750.256 587.824 750.558 587.95 750.78 588.173C751.003 588.397 751.128 588.699 751.128 589.014C751.128 589.329 751.003 589.632 750.78 589.855C750.558 590.078 750.256 590.204 749.941 590.205V590.205Z" fill="#CACACA"/>
<path d="M603.649 564.947V500.538C603.651 499.234 604.169 497.984 605.091 497.063C606.013 496.141 607.263 495.622 608.566 495.621H657.21C658.513 495.622 659.763 496.141 660.685 497.063C661.607 497.984 662.125 499.234 662.127 500.538V564.947C662.125 566.251 661.607 567.501 660.685 568.423C659.763 569.344 658.513 569.863 657.21 569.865H608.566C607.263 569.863 606.013 569.344 605.091 568.423C604.169 567.501 603.651 566.251 603.649 564.947Z" fill="#E6E6E6"/>
<path d="M607.381 545.493V504.085C607.382 502.864 607.868 501.693 608.731 500.83C609.594 499.967 610.765 499.481 611.986 499.48H653.79C655.011 499.481 656.182 499.967 657.045 500.83C657.909 501.693 658.394 502.864 658.396 504.085V561.4C658.394 562.621 657.909 563.792 657.045 564.655C656.182 565.519 655.011 566.004 653.79 566.005H627.893C622.455 565.999 617.241 563.836 613.395 559.991C609.55 556.145 607.387 550.931 607.381 545.493V545.493Z" fill="white"/>
<path d="M614.149 515.638C614.151 514.445 614.625 513.302 615.469 512.458C616.312 511.614 617.456 511.14 618.649 511.138H647.649C648.843 511.138 649.987 511.613 650.831 512.456C651.675 513.3 652.149 514.445 652.149 515.638C652.149 516.832 651.675 517.977 650.831 518.82C649.987 519.664 648.843 520.138 647.649 520.138H618.649C617.456 520.137 616.312 519.663 615.469 518.819C614.625 517.975 614.151 516.832 614.149 515.638V515.638Z" fill="#E6E6E6"/>
<path d="M614.149 529.638C614.151 528.445 614.625 527.302 615.469 526.458C616.312 525.614 617.456 525.14 618.649 525.138H647.649C648.843 525.138 649.987 525.613 650.831 526.456C651.675 527.3 652.149 528.445 652.149 529.638C652.149 530.832 651.675 531.977 650.831 532.82C649.987 533.664 648.843 534.138 647.649 534.138H618.649C617.456 534.137 616.312 533.663 615.469 532.819C614.625 531.975 614.151 530.832 614.149 529.638V529.638Z" fill="#E6E6E6"/>
<path d="M614.149 543.638C614.151 542.445 614.625 541.302 615.469 540.458C616.312 539.614 617.456 539.14 618.649 539.138H647.649C648.843 539.138 649.987 539.613 650.831 540.456C651.675 541.3 652.149 542.445 652.149 543.638C652.149 544.832 651.675 545.977 650.831 546.82C649.987 547.664 648.843 548.138 647.649 548.138H618.649C617.456 548.137 616.312 547.663 615.469 546.819C614.625 545.975 614.151 544.832 614.149 543.638V543.638Z" fill="#E6E6E6"/>
<path d="M612.668 231.249C594.346 261.164 576.096 320.446 550.668 322.527C516.54 325.321 488.668 265.491 488.668 231.249C488.668 214.806 495.2 199.036 506.827 187.409C518.454 175.782 534.224 169.249 550.668 169.249C584.909 169.249 630.552 202.049 612.668 231.249Z" fill="#CCCCCC"/>
<path d="M559.168 333.388H559.168C553.324 333.388 547.537 334.539 542.138 336.776C536.739 339.012 531.834 342.29 527.701 346.422C523.569 350.554 520.291 355.46 518.055 360.859C515.819 366.258 514.668 372.044 514.668 377.888L541.668 513.388V574.75C538.822 575.424 536.287 577.038 534.472 579.332C532.657 581.625 531.669 584.464 531.668 587.388H555.668V513.388H571.668V574.558C568.605 575.033 565.813 576.587 563.796 578.94C561.779 581.293 560.669 584.289 560.668 587.388H585.668V513.388L603.668 377.888C603.668 372.044 602.517 366.258 600.28 360.859C598.044 355.46 594.766 350.554 590.634 346.422C586.502 342.29 581.596 339.012 576.197 336.776C570.798 334.539 565.011 333.388 559.168 333.388V333.388Z" fill="#CCCCCC"/>
<path d="M431.909 367.943C428.579 364.618 422.561 362.388 415.668 362.388C405.174 362.388 396.668 367.537 396.668 373.888C396.668 380.24 405.174 385.388 415.668 385.388C420.522 385.496 425.31 384.24 429.487 381.764L429.482 381.823L534.074 386.987L535.468 373.056L431.909 367.943Z" fill="#CCCCCC"/>
<path d="M596.929 480.668C594.506 484.703 593.796 491.081 595.46 497.771C597.994 507.954 605.044 514.966 611.207 513.432C617.371 511.899 620.313 502.401 617.78 492.218C616.712 487.481 614.337 483.138 610.926 479.682L610.984 479.673L590.742 376.928L576.888 378.939L596.929 480.668Z" fill="#CCCCCC"/>
<path d="M564.476 204.777C565.859 199.039 561.415 193.802 556.185 192.055C549.275 189.747 542.052 192.988 535.346 194.462C531.889 195.222 528.226 195.603 524.815 194.422C522.269 193.481 520.067 191.792 518.499 189.577C514.779 184.468 514.591 177.961 516.543 172.118C520.349 160.722 531.087 152.423 542.63 149.987C556.474 147.067 569.876 153.988 582.33 159.102L594.351 164.037C598.03 165.547 601.792 166.94 605.351 168.724C611.068 171.589 617.553 177.296 615.205 184.461C614.602 186.3 617.498 187.088 618.097 185.259C620.154 178.984 616.461 172.664 611.526 168.964C608.772 167.029 605.791 165.439 602.649 164.231C599.082 162.731 595.492 161.285 591.912 159.815C584.503 156.773 577.132 153.598 569.652 150.735C562.94 148.166 555.853 146.066 548.595 146.277C542.457 146.499 536.458 148.156 531.077 151.115C525.696 154.074 521.083 158.254 517.61 163.319C513.732 169.074 511.429 176.196 512.6 183.153C513.54 188.734 517.136 194.189 522.341 196.63C530.175 200.303 538.341 196.377 546.156 194.822C549.914 194.074 554.109 193.861 557.487 195.954C560.179 197.622 562.374 200.699 561.583 203.98C561.131 205.856 564.024 206.656 564.476 204.777L564.476 204.777Z" fill="#3F3D56"/>
<path d="M410.109 373.4C399.492 373.507 388.884 372.771 378.383 371.2C367.392 369.339 362.272 366.572 362.272 362.488L362.279 362.326L380.299 225.09L371.343 199.418C370.856 198.048 370.71 196.58 370.918 195.141C371.126 193.702 371.682 192.336 372.537 191.16C373.371 189.962 374.49 188.989 375.793 188.331C377.097 187.673 378.544 187.35 380.003 187.391L439.811 188.014C441.236 188.028 442.638 188.38 443.902 189.039C445.166 189.699 446.256 190.648 447.084 191.808C447.911 192.969 448.453 194.309 448.664 195.719C448.875 197.129 448.751 198.569 448.299 199.922L439.916 225.073L457.942 362.316V362.382C457.944 366.804 452.176 369.691 439.791 371.519C429.95 372.806 420.033 373.434 410.109 373.4V373.4ZM379.801 189.389C378.694 189.388 377.603 189.655 376.621 190.166C375.639 190.678 374.796 191.419 374.162 192.327C373.496 193.243 373.063 194.307 372.901 195.428C372.739 196.549 372.852 197.692 373.232 198.759L382.344 224.88L382.313 225.115L364.27 362.509L364.271 362.542C364.272 364.448 366.778 367.208 378.717 369.227C389.107 370.78 399.604 371.507 410.109 371.4C419.936 371.435 429.754 370.813 439.499 369.541C453.091 367.535 455.943 364.569 455.942 362.435L437.873 224.877L446.402 199.289C446.753 198.235 446.85 197.114 446.686 196.016C446.521 194.917 446.1 193.874 445.455 192.969C444.81 192.065 443.961 191.326 442.977 190.813C441.992 190.299 440.9 190.025 439.79 190.014L379.969 189.391C379.913 189.389 379.857 189.389 379.801 189.389Z" fill="#3F3D56"/>
<path opacity="0.5" d="M444.209 345.678H376.008L386.82 272.571L387.114 270.556L391.618 240.122C391.893 238.265 394.03 239.707 395.541 238.594C404.924 231.685 414.419 231.484 423.996 238.144C425.477 239.173 427.522 237.969 427.798 239.75L432.529 270.277L432.987 273.23L444.209 345.678Z" fill="#1BE0A1"/>
<path d="M435.792 355.915H384.353C383.004 355.915 381.672 355.624 380.446 355.063C379.22 354.501 378.129 353.682 377.248 352.661C376.367 351.64 375.716 350.441 375.34 349.146C374.964 347.851 374.872 346.49 375.069 345.156L390.098 243.529C390.175 243.009 390.389 242.519 390.717 242.109C391.044 241.698 391.475 241.381 391.964 241.191C392.454 241 392.985 240.942 393.504 241.022C394.023 241.103 394.512 241.319 394.921 241.649C404.08 248.986 414.063 248.821 424.591 241.16C424.999 240.862 425.478 240.674 425.98 240.616C426.482 240.557 426.991 240.63 427.457 240.826C427.933 241.022 428.35 241.337 428.667 241.741C428.985 242.145 429.192 242.625 429.27 243.133L445.066 345.093C445.273 346.431 445.189 347.798 444.818 349.1C444.447 350.402 443.799 351.609 442.918 352.637C442.037 353.665 440.944 354.49 439.713 355.056C438.483 355.622 437.146 355.915 435.792 355.915V355.915Z" fill="#1BE0A1"/>
<path d="M415.094 344H385.869V345.643H415.094V344Z" fill="white"/>
<path d="M415.094 334.14H385.869V335.783H415.094V334.14Z" fill="white"/>
<path d="M415.094 324.28H385.869V325.923H415.094V324.28Z" fill="white"/>
<path d="M415.094 314.419H385.869V316.063H415.094V314.419Z" fill="white"/>
<path d="M415.094 304.559H385.869V306.202H415.094V304.559Z" fill="white"/>
<path d="M434.365 278.692C432.098 280.943 429.372 282.677 426.372 283.774C423.372 284.872 420.17 285.308 416.986 285.052C413.414 284.62 409.967 283.465 406.855 281.658C403.56 279.892 400.372 277.78 396.723 276.794C393.527 275.931 389.739 275.816 386.994 277.952C386.77 278.126 386.496 278.224 386.212 278.231C385.929 278.239 385.65 278.155 385.417 277.994L385.729 275.857C387.253 274.87 388.963 274.207 390.754 273.908C392.545 273.61 394.378 273.683 396.14 274.123C403.469 275.602 409.032 281.667 416.542 282.538C419.782 282.902 423.062 282.456 426.086 281.24C429.111 280.024 431.787 278.075 433.872 275.57L433.88 275.561L434.365 278.692Z" fill="white"/>
<path d="M227.668 49.3883C226.652 71.4563 209.721 88.0916 187.668 89.3883C163.82 90.7905 142.564 75.4806 147.668 49.3883C153.351 20.3319 165.994 13.6495 187.668 9.38832C213.067 4.39462 228.765 25.5443 227.668 49.3883Z" fill="#2F2E41"/>
<path d="M308.359 204.143C307.087 204.901 305.663 205.371 304.19 205.52C302.716 205.668 301.227 205.492 299.829 205.003C298.431 204.514 297.157 203.724 296.097 202.69C295.036 201.655 294.216 200.401 293.693 199.015L246.916 208.095L201.167 189.363L212.846 170.677L246.952 187.777L300.245 185.609C302.631 184.885 305.201 185.062 307.466 186.105C309.731 187.149 311.534 188.987 312.534 191.272C313.535 193.557 313.662 196.129 312.893 198.501C312.123 200.873 310.51 202.881 308.359 204.143V204.143Z" fill="#FFB6B6"/>
<path d="M164.514 166.204C164.514 166.204 161.375 170.54 171.695 175.241C179.958 179.004 224.336 203.018 236.782 205.02C236.906 206.783 237.614 208.454 238.792 209.77C239.971 211.086 241.554 211.973 243.292 212.29L250.319 187.05C247.154 182.028 243.638 183.857 241.876 185.385L228.219 174.624L190.63 150.914L166.728 163.031L164.514 166.204Z" fill="white"/>
<path d="M229.668 110.388L212.195 107.411L180.14 122.064L162.14 371.064L218.667 344.922C227.777 340.709 238.088 339.865 247.762 342.542V342.542C249.429 343.003 251.184 343.042 252.87 342.655C254.555 342.269 256.118 341.469 257.418 340.328C258.717 339.187 259.712 337.74 260.313 336.118C260.914 334.497 261.102 332.751 260.86 331.039L229.668 110.388Z" fill="white"/>
<path d="M177.261 565.646H190.98L197.508 512.732H177.261V565.646Z" fill="#FFB6B6"/>
<path d="M170.02 589.415H179.858L181.614 580.127L186.112 589.415H212.205C213.456 589.415 214.674 589.015 215.681 588.274C216.688 587.533 217.433 586.489 217.805 585.295C218.177 584.101 218.158 582.819 217.75 581.637C217.342 580.454 216.567 579.433 215.538 578.723L194.701 564.332V554.942L172.784 556.25L170.02 589.415Z" fill="#2F2E41"/>
<path d="M108.894 536.454L119.96 544.562L156.5 505.738L140.168 493.771L108.894 536.454Z" fill="#FFB6B6"/>
<path d="M89.0044 551.347L96.9402 557.162L103.846 550.708L101.985 560.858L123.032 576.28C124.041 577.019 125.26 577.417 126.51 577.414C127.761 577.412 128.978 577.01 129.984 576.267C130.99 575.524 131.732 574.478 132.102 573.283C132.472 572.089 132.45 570.807 132.04 569.625L123.738 545.702L129.288 538.127L110.835 526.229L89.0044 551.347Z" fill="#2F2E41"/>
<path d="M227.528 323.078C226.768 333.618 213.968 372.078 213.968 372.078L211.678 395.338L205.158 461.608L198.108 533.228C187.568 552.058 169.488 539.228 169.488 539.228V527.228C169.488 527.228 168.078 516.398 166.658 502.668C164.558 482.478 162.428 456.008 164.668 448.388C164.447 447.358 164.28 446.316 164.168 445.268C161.868 427.428 156.268 347.448 164.268 338.898C152.194 326.87 144.856 310.895 143.598 293.898C143.418 291.428 143.268 288.838 143.178 286.148C142.568 269.148 154.178 249.228 158.718 242.148C159.818 240.428 159.223 237.589 159.223 237.589L225.713 263.969L227.138 265.908V274.178L227.528 323.078Z" fill="#35323E"/>
<path d="M211.678 395.338L205.158 461.608L166.658 502.668L148.618 521.908C128.788 530.408 122.268 509.218 122.268 509.218L129.578 499.708C129.578 499.708 150.098 464.358 164.168 445.268C168.058 439.998 171.458 435.958 173.788 434.258C179.048 430.438 194.938 409.678 209.858 389.398L211.678 395.338Z" fill="#35323E"/>
<path d="M141.715 240.091C141.786 241.563 142.09 243.014 142.615 244.391C142.675 244.561 142.735 244.721 142.805 244.891C144.039 247.841 146.23 250.289 149.025 251.841C149.848 252.305 150.716 252.683 151.615 252.971L159.405 254.221L226.395 264.931L229.085 256.841L224.015 244.161L227.375 233.261L227.832 169.781C235.536 154.63 237.087 140.373 228.135 127.641V127.561L215.965 108.151L207.865 95.8811L181.885 95.0511L178.195 104.411L170.905 108.771C154.745 118.431 148.925 136.121 149.275 154.951C154.845 176.521 150.745 200.501 146.595 226.211L143.205 232.991C142.106 235.19 141.593 237.636 141.715 240.091Z" fill="#1BE0A1"/>
<path opacity="0.2" d="M141.715 240.091C141.786 241.563 142.09 243.014 142.615 244.391L149.025 251.841C149.848 252.305 150.716 252.683 151.615 252.971L159.405 254.221L148.135 233.031L172.905 178.801L141.715 240.091Z" fill="black"/>
<path d="M202.668 113.388L178.195 104.411L146.14 119.064L147.668 221.388C138.156 229.24 136.24 240.557 143.077 255.869L130.715 348.724C130.461 350.628 130.724 352.566 131.475 354.333C132.226 356.101 133.438 357.635 134.985 358.775C136.531 359.914 138.355 360.617 140.266 360.811C142.177 361.004 144.105 360.681 145.849 359.875L170.237 348.596C188.664 340.074 209.518 338.367 229.085 343.781V343.781L202.668 113.388Z" fill="white"/>
<path d="M163.224 63.3155C164.363 71.6257 168.755 79.1436 175.434 84.2174C182.113 89.2913 190.533 91.5059 198.845 90.3747C207.156 89.2436 214.678 84.8591 219.758 78.1848C224.839 71.5105 227.062 63.0923 225.939 54.78L225.877 54.3308C224.566 46.1302 220.084 38.7736 213.397 33.8481C206.711 28.9225 198.356 26.8227 190.136 28.0015C181.915 29.1804 174.487 33.5435 169.454 40.1497C164.421 46.7558 162.187 55.0756 163.233 63.3142L163.224 63.3155Z" fill="#FFB8B8"/>
<path d="M237.668 51.3883C230.78 53.1106 223.575 53.1106 216.688 51.3883C216.277 49.332 215.526 47.3584 214.468 45.5483C214.333 47.5476 213.901 49.5158 213.188 51.3883C207.411 55.3934 194.325 53.2096 181.668 51.3883V19.3883H205.668C225.984 17.5675 240.728 31.6124 237.668 51.3883Z" fill="#2F2E41"/>
<path d="M177.045 3.4091C175.22 0.866103 171.617 -0.24361 168.383 0.0445404C165.219 0.472695 162.198 1.63447 159.562 3.43718C155.053 6.21522 150.991 9.66163 147.516 13.6587C144.518 17.1217 141.974 21.9205 144.324 25.9457C146.285 29.3044 151.075 30.603 155.05 29.8558C159.024 29.1087 162.347 26.7753 165.424 24.4026C168.502 22.03 171.573 19.5024 175.37 18.2357L172.308 17.994C174.39 16.1036 176.129 13.8663 177.447 11.3817C178.081 10.1332 178.378 8.7404 178.307 7.34178C178.237 5.94316 177.801 4.58737 177.045 3.4091V3.4091Z" fill="#2F2E41"/>
<path d="M206.668 24.3883H180.92C173.957 24.3883 167.28 27.1541 162.357 32.0773C157.433 37.0005 154.668 43.6778 154.668 50.6402V50.6403C154.669 60.7807 158.451 70.5564 165.274 78.0573C172.098 85.5581 181.474 90.245 191.569 91.2023L182.668 65.3883L199.853 91.3883H206.668C183.426 71.9947 189.944 48.8369 206.668 24.3883Z" fill="#2F2E41"/>
<path d="M286.224 578.56C282.87 578.594 279.518 578.362 276.201 577.866C273.112 577.344 271.546 576.602 271.546 575.661L271.547 575.644L277.309 531.772L274.407 523.453C274.285 523.103 274.249 522.73 274.302 522.364C274.355 521.998 274.496 521.65 274.711 521.349C274.927 521.049 275.212 520.805 275.542 520.637C275.872 520.47 276.238 520.385 276.608 520.389L295.692 520.588C296.055 520.591 296.413 520.681 296.734 520.849C297.056 521.017 297.334 521.259 297.545 521.555C297.756 521.85 297.894 522.192 297.948 522.551C298.001 522.91 297.97 523.277 297.855 523.621L295.138 531.771L300.901 575.644C300.902 577.95 291.675 578.56 286.224 578.56Z" fill="#F2F2F2"/>
<path d="M284.669 572.385H275.346V572.909H284.669V572.385Z" fill="#CCCCCC"/>
<path d="M284.669 569.239H275.346V569.763H284.669V569.239Z" fill="#CCCCCC"/>
<path d="M284.669 566.094H275.346V566.618H284.669V566.094Z" fill="#CCCCCC"/>
<path d="M284.669 562.949H275.346V563.473H284.669V562.949Z" fill="#CCCCCC"/>
<path d="M284.669 559.803H275.346V560.328H284.669V559.803Z" fill="#CCCCCC"/>
<path d="M370.098 578.56C366.743 578.594 363.392 578.362 360.075 577.866C356.986 577.344 355.42 576.602 355.42 575.661L355.421 575.644L361.183 531.772L358.281 523.453C358.159 523.103 358.123 522.73 358.176 522.364C358.229 521.998 358.369 521.65 358.585 521.349C358.801 521.049 359.086 520.805 359.416 520.637C359.746 520.47 360.111 520.385 360.481 520.389L379.566 520.588C379.929 520.591 380.286 520.681 380.608 520.849C380.93 521.017 381.208 521.259 381.419 521.555C381.63 521.85 381.767 522.192 381.821 522.551C381.875 522.91 381.843 523.277 381.728 523.621L379.012 531.771L384.774 575.644C384.775 577.95 375.549 578.56 370.098 578.56Z" fill="#F2F2F2"/>
<path d="M368.542 572.385H359.22V572.909H368.542V572.385Z" fill="#CCCCCC"/>
<path d="M368.542 569.239H359.22V569.763H368.542V569.239Z" fill="#CCCCCC"/>
<path d="M368.542 566.094H359.22V566.618H368.542V566.094Z" fill="#CCCCCC"/>
<path d="M368.542 562.949H359.22V563.473H368.542V562.949Z" fill="#CCCCCC"/>
<path d="M368.542 559.803H359.22V560.328H368.542V559.803Z" fill="#CCCCCC"/>
<path d="M330.782 578.56C327.428 578.594 324.076 578.362 320.759 577.866C317.67 577.344 316.104 576.602 316.104 575.661L316.105 575.644L321.867 531.772L318.965 523.453C318.843 523.103 318.807 522.73 318.86 522.364C318.913 521.998 319.053 521.65 319.269 521.349C319.485 521.049 319.77 520.805 320.1 520.637C320.43 520.47 320.796 520.385 321.165 520.389L340.25 520.588C340.613 520.591 340.97 520.681 341.292 520.849C341.614 521.017 341.892 521.259 342.103 521.555C342.314 521.85 342.452 522.192 342.505 522.551C342.559 522.91 342.528 523.277 342.413 523.621L339.696 531.771L345.458 575.644C345.46 577.95 336.233 578.56 330.782 578.56Z" fill="#F2F2F2"/>
<path d="M329.227 572.385H319.904V572.909H329.227V572.385Z" fill="#CCCCCC"/>
<path d="M329.227 569.239H319.904V569.763H329.227V569.239Z" fill="#CCCCCC"/>
<path d="M329.227 566.094H319.904V566.618H329.227V566.094Z" fill="#CCCCCC"/>
<path d="M329.227 562.949H319.904V563.473H329.227V562.949Z" fill="#CCCCCC"/>
<path d="M329.227 559.803H319.904V560.328H329.227V559.803Z" fill="#CCCCCC"/>
<path d="M392.77 581.82H374.946V551.94H392.77C393.742 551.939 394.674 551.551 395.36 550.863C396.047 550.175 396.433 549.243 396.433 548.271C396.433 547.299 396.047 546.366 395.36 545.678C394.674 544.99 393.742 544.603 392.77 544.601H268.532C267.56 544.603 266.628 544.99 265.941 545.678C265.254 546.366 264.868 547.299 264.868 548.271C264.868 549.243 265.254 550.175 265.941 550.863C266.628 551.551 267.56 551.939 268.532 551.94H283.734V581.82H268.532C267.56 581.822 266.628 582.209 265.941 582.897C265.254 583.585 264.868 584.518 264.868 585.49C264.868 586.462 265.254 587.394 265.941 588.082C266.628 588.77 267.56 589.158 268.532 589.159H392.77C393.742 589.158 394.674 588.77 395.36 588.082C396.047 587.394 396.433 586.462 396.433 585.49C396.433 584.518 396.047 583.585 395.36 582.897C394.674 582.209 393.742 581.822 392.77 581.82ZM291.073 581.82V551.94H367.608V581.82H291.073Z" fill="#CCCCCC"/>
<path d="M232.902 343.052V278.642C232.904 277.339 233.422 276.089 234.344 275.167C235.266 274.245 236.516 273.727 237.819 273.725H286.463C287.766 273.727 289.016 274.245 289.938 275.167C290.86 276.089 291.378 277.339 291.38 278.642V343.052C291.378 344.356 290.86 345.605 289.938 346.527C289.016 347.449 287.766 347.968 286.463 347.969H237.819C236.516 347.968 235.266 347.449 234.344 346.527C233.422 345.605 232.904 344.356 232.902 343.052V343.052Z" fill="#E6E6E6"/>
<path d="M236.634 323.598V282.189C236.635 280.968 237.121 279.798 237.984 278.935C238.847 278.071 240.018 277.586 241.239 277.584H283.043C284.264 277.586 285.435 278.071 286.298 278.935C287.162 279.798 287.647 280.968 287.649 282.189V339.505C287.647 340.726 287.162 341.896 286.298 342.76C285.435 343.623 284.264 344.109 283.043 344.11H257.146C251.708 344.104 246.494 341.941 242.648 338.095C238.803 334.25 236.64 329.036 236.634 323.598Z" fill="white"/>
<path d="M243.402 293.743C243.404 292.55 243.878 291.406 244.722 290.562C245.565 289.719 246.709 289.244 247.902 289.243H276.902C278.096 289.243 279.24 289.717 280.084 290.561C280.928 291.405 281.402 292.55 281.402 293.743C281.402 294.936 280.928 296.081 280.084 296.925C279.24 297.769 278.096 298.243 276.902 298.243H247.902C246.709 298.242 245.565 297.767 244.722 296.924C243.878 296.08 243.404 294.936 243.402 293.743Z" fill="#E6E6E6"/>
<path d="M243.402 307.743C243.404 306.55 243.878 305.406 244.722 304.562C245.565 303.719 246.709 303.244 247.902 303.243H276.902C278.096 303.243 279.24 303.717 280.084 304.561C280.928 305.405 281.402 306.55 281.402 307.743C281.402 308.936 280.928 310.081 280.084 310.925C279.24 311.769 278.096 312.243 276.902 312.243H247.902C246.709 312.242 245.565 311.767 244.722 310.924C243.878 310.08 243.404 308.936 243.402 307.743Z" fill="#E6E6E6"/>
<path d="M243.402 321.743C243.404 320.55 243.878 319.406 244.722 318.562C245.565 317.719 246.709 317.244 247.902 317.243H276.902C278.096 317.243 279.24 317.717 280.084 318.561C280.928 319.405 281.402 320.55 281.402 321.743C281.402 322.936 280.928 324.081 280.084 324.925C279.24 325.769 278.096 326.243 276.902 326.243H247.902C246.709 326.242 245.565 325.767 244.722 324.924C243.878 324.08 243.404 322.936 243.402 321.743Z" fill="#E6E6E6"/>
<path d="M233.727 280.664C232.358 280.098 231.13 279.239 230.129 278.147C229.128 277.055 228.379 275.757 227.933 274.344C227.488 272.931 227.358 271.438 227.553 269.97C227.747 268.501 228.261 267.093 229.059 265.845L193.789 233.805L181.416 185.943L203.375 184.116L210.087 221.674L243.719 263.07C245.728 264.549 247.124 266.713 247.643 269.152C248.163 271.592 247.769 274.137 246.538 276.305C245.306 278.474 243.322 280.115 240.961 280.918C238.6 281.722 236.026 281.631 233.727 280.664V280.664Z" fill="#FFB6B6"/>
<path d="M178.032 142.719C178.032 142.719 172.68 142.798 175.091 153.88C177.021 162.752 184.343 212.677 190.186 223.846C188.849 225 187.934 226.567 187.585 228.299C187.236 230.031 187.473 231.83 188.259 233.412L212.685 223.936C214.814 218.395 211.244 216.672 208.966 216.175L209.413 198.794L205.911 154.49L181.9 142.593L178.032 142.719Z" fill="white"/>
</g>
<defs>
<clipPath id="clip0_3_2">
<rect width="751.131" height="590.512" fill="white"/>
</clipPath>
</defs>
</svg>
